<svg width="16" height="16" viewBox="0 0 16 16" fill="none" xmlns="http://www.w3.org/2000/svg">
<path d="M8.08496 0C3.57042 0 -0.0362075 3.57502 0.000274339 8.01586C0.0367562 12.5094 3.59072 16.0019 8.12398 16C12.4345 15.9984 16.0028 12.3849 15.9999 8.02443C15.9971 3.60772 12.4387 0 8.08496 0ZM8.20868 14.9383C4.21725 14.957 1.09663 11.93 1.06142 8.00506C1.02748 4.22462 4.16396 1.07568 7.98567 1.05346C11.8074 1.03123 14.9245 4.14874 14.9388 8.00665C14.954 11.7242 11.8483 14.9224 8.20868 14.9383Z" fill="#070705"/>
<path d="M11.0496 5.03826L9.46582 6.60791L12.3922 9.56552L13.976 7.99587L11.0496 5.03826Z" fill="white"/>
<path d="M13.3424 8.62402L12.0538 7.32165L12.6876 6.69363L12.3358 6.33835L11.7023 6.96637L10.4172 5.66748L10.1006 5.98117L11.3857 7.28005L10.7522 7.90775L11.104 8.26335L11.7372 7.63565L13.0258 8.93771L13.3424 8.62402Z" fill="#EC1C24"/>
<path d="M10.8644 5.2207L10.5195 5.56265L11.1578 6.20749L10.8644 5.2207Z" fill="#2F60A2"/>
<path d="M11.4014 5.39366L11.3916 5.38477L11.7697 6.66682L12.2196 6.22074L11.4014 5.39366Z" fill="#2F60A2"/>
<path d="M11.5041 6.55319L11.0488 5.03809L10.9248 5.16128L11.27 6.31665L11.5041 6.55319Z" fill="#EC1C24"/>
<path d="M11.9375 8.05054L12.3927 9.56562L12.5171 9.44275L12.1716 8.28739L11.9375 8.05054Z" fill="#EC1C24"/>
<path d="M9.64746 6.42764L9.9923 6.08569L10.6306 6.73085L9.64746 6.42764Z" fill="#2F60A2"/>
<path d="M9.81455 6.9659L9.80566 6.95605L11.0828 7.34721L10.633 7.79298L9.81455 6.9659Z" fill="#2F60A2"/>
<path d="M10.9702 7.07248L9.4668 6.60767L9.69489 6.8388L11.1427 7.28997L11.1643 7.2687L10.9702 7.07248Z" fill="#EC1C24"/>
<path d="M13.7917 8.17901L13.4469 8.52063L12.8086 7.87549L13.7917 8.17901Z" fill="#2F60A2"/>
<path d="M13.6238 7.64007L13.6327 7.64991L12.3555 7.25907L12.8056 6.81299L13.6238 7.64007Z" fill="#2F60A2"/>
<path d="M13.9749 7.99592L13.7551 7.77399L12.2971 7.31934L12.2793 7.33712L12.4798 7.54L13.9749 7.99592Z" fill="#EC1C24"/>
<path d="M12.5747 9.38546L12.9195 9.04352L12.2812 8.39868L12.5747 9.38546Z" fill="#2F60A2"/>
<path d="M12.0382 9.21238L12.048 9.22127L11.6696 7.93921L11.2197 8.38529L12.0382 9.21238Z" fill="#2F60A2"/>
<path d="M3.38431 10.0079L1.53516 8.15688L5.08405 4.60376L6.93352 6.45446L3.38431 10.0079ZM2.14044 8.15688L3.38431 9.40179L6.32792 6.45573L5.08405 5.21082L2.14044 8.15688Z" fill="black"/>
<path d="M5.23516 4.75642L4.93457 5.06128L11.1403 11.1903L11.4408 10.8854L5.23516 4.75642Z" fill="black"/>
<path d="M9.0166 6.45573L10.8661 4.60376L14.415 8.15688L12.5658 10.0079L9.0166 6.45573ZM10.8661 5.21082L9.6222 6.45573L12.5658 9.40179L13.8097 8.15688L10.8661 5.21082Z" fill="black"/>
<path d="M10.7145 4.75402L4.50879 10.8831L4.80938 11.1879L11.0151 5.05888L10.7145 4.75402Z" fill="black"/>
<path d="M2.97262 7.31015L2.54883 7.73193L2.97563 8.16148L3.39942 7.7397L2.97262 7.31015Z" fill="black"/>
<path d="M3.82027 6.4664L3.39648 6.88818L3.82328 7.31773L4.24707 6.89595L3.82027 6.4664Z" fill="black"/>
<path d="M4.66793 5.62289L4.24414 6.04468L4.67094 6.47423L5.09473 6.05244L4.66793 5.62289Z" fill="black"/>
<path d="M2.54879 7.73227L2.125 8.15405L2.5518 8.5836L2.9756 8.16182L2.54879 7.73227Z" fill="white"/>
<path d="M3.39645 6.88827L2.97266 7.31006L3.39946 7.73961L3.82325 7.31782L3.39645 6.88827Z" fill="white"/>
<path d="M4.24411 6.04452L3.82031 6.46631L4.24711 6.89586L4.67091 6.47407L4.24411 6.04452Z" fill="white"/>
<path d="M5.09176 5.20102L4.66797 5.6228L5.09477 6.05236L5.51857 5.63057L5.09176 5.20102Z" fill="white"/>
<path d="M3.39743 7.73739L2.97363 8.15918L3.40044 8.58873L3.82423 8.16695L3.39743 7.73739Z" fill="white"/>
<path d="M4.24508 6.89438L3.82129 7.31616L4.24809 7.74571L4.67188 7.32393L4.24508 6.89438Z" fill="white"/>
<path d="M5.09274 6.05038L4.66895 6.47217L5.09575 6.90172L5.51954 6.47993L5.09274 6.05038Z" fill="white"/>
<path d="M2.9736 8.15927L2.5498 8.58105L2.97661 9.01061L3.4004 8.58882L2.9736 8.15927Z" fill="black"/>
<path d="M3.82125 7.31552L3.39746 7.7373L3.82426 8.16685L4.24805 7.74507L3.82125 7.31552Z" fill="black"/>
<path d="M4.66891 6.47202L4.24512 6.8938L4.67192 7.32334L5.09571 6.90156L4.66891 6.47202Z" fill="black"/>
<path d="M5.51657 5.62899L5.09277 6.05078L5.51958 6.48034L5.94338 6.05855L5.51657 5.62899Z" fill="black"/>
<path d="M3.81247 8.15561L3.38867 8.57739L3.81547 9.00694L4.23927 8.58516L3.81247 8.15561Z" fill="black"/>
<path d="M4.66013 7.31186L4.23633 7.73364L4.66313 8.16319L5.08693 7.74141L4.66013 7.31186Z" fill="black"/>
<path d="M5.50778 6.46836L5.08398 6.89014L5.51079 7.31968L5.93458 6.8979L5.50778 6.46836Z" fill="black"/>
<path d="M3.38961 8.57772L2.96582 8.99951L3.39262 9.42907L3.81642 9.00728L3.38961 8.57772Z" fill="white"/>
<path d="M4.23727 7.73397L3.81348 8.15576L4.24028 8.58532L4.66408 8.16353L4.23727 7.73397Z" fill="white"/>
<path d="M5.08395 6.89023L4.66016 7.31201L5.08696 7.74156L5.51075 7.31978L5.08395 6.89023Z" fill="white"/>
<path d="M5.93259 6.04647L5.50879 6.46826L5.93559 6.89782L6.35939 6.47603L5.93259 6.04647Z" fill="white"/>
</svg>
