<svg width="36" height="36" viewBox="0 0 36 36" fill="none" xmlns="http://www.w3.org/2000/svg">
<path d="M18 0C14.7467 0 11.72 0.813334 8.92 2.44C6.2 4.04 4.05333 6.2 2.48 8.92C0.826667 11.6933 0 14.72 0 18C0 21.2533 0.813334 24.28 2.44 27.08C4.04 29.8 6.18667 31.9467 8.88 33.52C11.68 35.1733 14.7067 36 17.96 36C21.24 36 24.2667 35.1867 27.04 33.56C29.76 31.9867 31.92 29.84 33.52 27.12C35.1733 24.32 36 21.2933 36 18.04C36 15.64 35.5467 13.3467 34.64 11.16C33.7333 8.94667 32.4267 7 30.72 5.32C29.04 3.61333 27.0933 2.30667 24.88 1.4C22.6933 0.466667 20.4 0 18 0ZM18 34C15.12 34 12.44 33.28 9.96 31.84C7.53333 30.4267 5.61333 28.5067 4.2 26.08C2.76 23.6 2.04 20.92 2.04 18.04C2.04 15.16 2.76 12.48 4.2 10C5.61333 7.57333 7.53333 5.65333 9.96 4.24C12.44 2.8 15.12 2.08 18 2.08C20.88 2.08 23.56 2.8 26.04 4.24C28.4667 5.65333 30.3867 7.57333 31.8 10C33.24 12.48 33.96 15.16 33.96 18.04C33.96 20.92 33.24 23.6 31.8 26.08C30.3867 28.5067 28.4667 30.4267 26.04 31.84C23.56 33.28 20.88 34 18 34ZM23.36 11.16L17.96 16.56L12.56 11.16L11.12 12.6L16.52 18L11.12 23.4L12.56 24.84L17.96 19.44L23.36 24.84L24.8 23.4L19.4 18L24.8 12.6L23.36 11.16Z" fill="black"/>
</svg>
