<svg width="150" height="33" viewBox="0 0 150 33" fill="none" xmlns="http://www.w3.org/2000/svg">
<g clip-path="url(#clip0_188_8794)">
<path d="M16.5046 4.79102C15.5911 4.79102 14.7 4.89848 13.8446 5.09997V8.30594H8.15291C6.42882 10.0612 5.25555 12.3537 4.90625 14.9059H13.8446V18.0985H4.90625C5.25555 20.6507 6.42882 22.9433 8.15291 24.6985H13.8446V27.9045C14.7 28.1059 15.5911 28.2134 16.5046 28.2134C22.9621 28.2089 28.215 22.9567 28.215 16.5C28.215 10.0433 22.9621 4.79102 16.5046 4.79102Z" fill="#E1CA00"/>
<path d="M16.502 0C7.38894 0 0 7.38806 0 16.5C0 25.6119 7.38894 33 16.502 33C25.615 33 33.0039 25.6119 33.0039 16.5C33.0039 7.38806 25.615 0 16.502 0ZM16.502 30.8731C8.56222 30.8731 2.12712 24.4388 2.12712 16.5C2.12712 8.56119 8.56222 2.12687 16.502 2.12687C24.4417 2.12687 30.8768 8.56119 30.8768 16.5C30.8768 24.4388 24.4417 30.8731 16.502 30.8731Z" fill="black"/>
<path d="M146.459 21.7656C147.377 21.7656 148.16 21.5014 148.801 20.9685C149.441 20.4357 149.844 19.6835 150.001 18.7118H149.186C149.038 19.4417 148.747 19.9879 148.308 20.3506C147.869 20.7133 147.359 20.8924 146.772 20.8924C146.208 20.8924 145.702 20.6909 145.25 20.2835C144.802 19.876 144.448 19.2894 144.193 18.5193C143.938 17.7536 143.808 16.8447 143.808 15.8014C143.808 14.682 144.014 13.7596 144.421 13.0297C144.829 12.2999 145.451 11.9327 146.284 11.9327C146.817 11.9327 147.26 12.1208 147.614 12.4969C147.968 12.873 148.187 13.4685 148.272 14.2835H149.607V12.17C149.168 11.9103 148.707 11.6909 148.228 11.5118C147.748 11.3327 147.157 11.2432 146.459 11.2432C145.415 11.2432 144.551 11.5029 143.866 12.0178C143.181 12.5327 142.679 13.2088 142.352 14.0461C142.03 14.8835 141.869 15.779 141.869 16.7417C141.869 17.5969 142.021 18.4073 142.33 19.1641C142.639 19.9208 143.136 20.5432 143.817 21.0357C144.502 21.5193 145.384 21.7656 146.459 21.7656ZM141.067 12.1745V11.4223H136.132V12.1745H137.65V20.8253H136.132V21.5775H141.067V20.8253H139.549V12.1745H141.067ZM129.155 12.1745H130.579C130.996 12.1745 131.34 12.3626 131.614 12.7297C131.887 13.1014 132.021 13.5805 132.021 14.1626C132.021 14.7267 131.882 15.2103 131.6 15.6133C131.318 16.0163 130.978 16.2178 130.579 16.2178H129.155V12.1745ZM134.61 20.8253L132.026 16.7999C132.653 16.6029 133.145 16.267 133.499 15.7969C133.853 15.3267 134.032 14.785 134.032 14.167C134.032 13.3835 133.754 12.7297 133.203 12.2059C132.648 11.682 131.833 11.4223 130.758 11.4223H126.043V12.1745H127.265V20.8253H126.043V21.5775H130.382V20.8253H129.16V16.97H130.037L132.89 21.5775H135.693V20.8253H134.61ZM118.784 21.5775H123.656V20.8253H122.165V12.1745H123.562L124.359 14.2745H125.376V11.4223H117.06V14.2745H118.076L118.86 12.1745H120.271V20.8253H118.784V21.5775ZM112.734 21.7656C113.652 21.7656 114.435 21.5014 115.076 20.9685C115.716 20.4357 116.119 19.6835 116.276 18.7118H115.461C115.313 19.4417 115.022 19.9879 114.583 20.3506C114.144 20.7133 113.634 20.8924 113.047 20.8924C112.483 20.8924 111.977 20.6909 111.525 20.2835C111.077 19.876 110.723 19.2894 110.468 18.5193C110.213 17.7536 110.083 16.8447 110.083 15.8014C110.083 14.682 110.284 13.7596 110.692 13.0297C111.099 12.2999 111.722 11.9327 112.555 11.9327C113.088 11.9327 113.531 12.1208 113.889 12.4969C114.243 12.873 114.462 13.4685 114.547 14.2835H115.882V12.17C115.443 11.9103 114.982 11.6909 114.503 11.5118C114.023 11.3327 113.432 11.2432 112.734 11.2432C111.69 11.2432 110.826 11.5029 110.141 12.0178C109.456 12.5327 108.954 13.2088 108.627 14.0461C108.305 14.8835 108.144 15.779 108.144 16.7417C108.144 17.5969 108.296 18.4073 108.605 19.1641C108.914 19.9208 109.411 20.5432 110.092 21.0357C110.777 21.5193 111.659 21.7656 112.734 21.7656ZM106.106 18.7253L105.322 20.8253H102.237V16.6118H103.867V17.8342H104.807V14.6058H103.867V15.8282H102.237V12.179H105.184L105.981 14.279H107.078V11.4267H99.1157V12.179H100.338V20.8297H99.1157V21.582H107.203V18.7297H106.106V18.7253ZM90.3565 21.5775H98.444V18.7253H97.3469L96.5632 20.8253H93.4778V12.1745H94.7003V11.4223H90.361V12.1745H91.5835V20.8253H90.361V21.5775H90.3565ZM88.3951 18.7253L87.6114 20.8253H84.5259V16.6118H86.156V17.8342H87.0964V14.6058H86.156V15.8282H84.5259V12.179H87.4726L88.2742 14.279H89.3713V11.4267H81.4091V12.179H82.6317V20.8297H81.4091V21.582H89.4967V18.7297H88.3951V18.7253ZM76.7698 12.1745V11.4223H71.8304V12.1745H73.3485V20.8253H71.8304V21.5775H76.7653V20.8253H75.2427V12.1745H76.7698ZM61.9113 21.5775H65.1714V20.8253H63.9981V13.8536L68.8883 21.5775H70.0481V12.1745H71.2706V11.4223H67.9792V12.1745H69.1883V18.4118L64.7236 11.4223H61.9203V12.1745H63.1428V20.8253H61.9203V21.5775H61.9113ZM61.1903 12.1745V11.4223H56.2554V12.1745H57.7735V20.8253H56.2554V21.5775H61.1903V20.8253H59.6722V12.1745H61.1903ZM43.1523 21.5775H46.3945V20.8253H45.2347V13.8357L48.4455 20.8253H49.4173L52.4087 13.8223V20.8253H51.2354V21.5775H55.5299V20.8253H54.3074V12.1745H55.5299V11.4223H52.5072L49.4531 18.582L46.1796 11.4223H43.1568V12.1745H44.3794V20.8253H43.1568V21.5775H43.1523Z" fill="black"/>
</g>
<defs>
<clipPath id="clip0_188_8794">
<rect width="150" height="33" fill="white"/>
</clipPath>
</defs>
</svg>
